HIERARCHY
ROOT Hips
{
	OFFSET -0.001795 -0.223333 0.028219
	CHANNELS 6 Xposition Yposition Zposition Zrotation Yrotation Xrotation 
	JOINT LeftUpLeg
	{
		OFFSET 0.069520 -0.091406 -0.006815
		CHANNELS 3 Zrotation Yrotation Xrotation
		JOINT LeftLeg
		{
			OFFSET 0.034277 -0.375199 -0.004496
			CHANNELS 3 Zrotation Yrotation Xrotation
			JOINT LeftFoot
			{
				OFFSET -0.013596 -0.397961 -0.043693
				CHANNELS 3 Zrotation Yrotation Xrotation
				JOINT LeftToe
				{
					OFFSET 0.026358 -0.055791 0.119288
					CHANNELS 3 Zrotation Yrotation Xrotation
					End Site
					{
						OFFSET 0.000000 0.000000 0.000000
					}
				}
			}
		}
	}
	JOINT RightUpLeg
	{
		OFFSET -0.067670 -0.090522 -0.004320
		CHANNELS 3 Zrotation Yrotation Xrotation
		JOINT RightLeg
		{
			OFFSET -0.038290 -0.382569 -0.008850
			CHANNELS 3 Zrotation Yrotation Xrotation
			JOINT RightFoot
			{
				OFFSET 0.015774 -0.398415 -0.042312
				CHANNELS 3 Zrotation Yrotation Xrotation
				JOINT RightToe
				{
					OFFSET -0.025372 -0.048144 0.123348
					CHANNELS 3 Zrotation Yrotation Xrotation
					End Site
					{
						OFFSET 0.000000 0.000000 0.000000
					}
				}
			}
		}
	}
	JOINT Spine
	{
		OFFSET -0.002533 0.108963 -0.026696
		CHANNELS 3 Zrotation Yrotation Xrotation
		JOINT Spine1
		{
			OFFSET 0.005487 0.135180 0.001092
			CHANNELS 3 Zrotation Yrotation Xrotation
			JOINT Spine2
			{
				OFFSET 0.001457 0.052922 0.025425
				CHANNELS 3 Zrotation Yrotation Xrotation
				JOINT Neck
				{
					OFFSET -0.002778 0.213870 -0.042857
					CHANNELS 3 Zrotation Yrotation Xrotation
					JOINT Head
					{
						OFFSET 0.005152 0.064970 0.051349
						CHANNELS 3 Zrotation Yrotation Xrotation
						End Site
						{
							OFFSET 0.000000 0.000000 0.000000
						}
					}
				}
				JOINT LeftShoulder
				{
					OFFSET 0.078845 0.121749 -0.034090
					CHANNELS 3 Zrotation Yrotation Xrotation
					JOINT LeftArm
					{
						OFFSET 0.090977 0.030469 -0.008868
						CHANNELS 3 Zrotation Yrotation Xrotation
						JOINT LeftForeArm
						{
							OFFSET 0.259612 -0.012772 -0.027456
							CHANNELS 3 Zrotation Yrotation Xrotation
							JOINT LeftHand
							{
								OFFSET 0.249234 0.008986 -0.001171
								CHANNELS 3 Zrotation Yrotation Xrotation
								End Site
								{
									OFFSET 0.000000 0.000000 0.000000
								}
							}
						}
					}
				}
				JOINT RightShoulder
				{
					OFFSET -0.081759 0.118833 -0.038615
					CHANNELS 3 Zrotation Yrotation Xrotation
					JOINT RightArm
					{
						OFFSET -0.096012 0.032551 -0.009143
						CHANNELS 3 Zrotation Yrotation Xrotation
						JOINT RightForeArm
						{
							OFFSET -0.253742 -0.013329 -0.021401
							CHANNELS 3 Zrotation Yrotation Xrotation
							JOINT RightHand
							{
								OFFSET -0.255298 0.007772 -0.005559
								CHANNELS 3 Zrotation Yrotation Xrotation
								End Site
								{
									OFFSET 0.000000 0.000000 0.000000
								}
							}
						}
					}
				}
			}
		}
	}
}
MOTION
Frames: 14
Frame Time: 0.050000
1.947034 0.942618 0.773086 -29.269359 73.670289 -26.986244 16.490645 -6.481916 6.478686 -3.638371 -1.263996 -7.493761 22.271701 23.783972 22.102966 0.000000 0.000000 0.000000 -8.252709 -5.168736 -17.759943 2.249042 -0.897160 -0.198943 -14.940622 -12.575337 41.311467 0.000000 0.000000 0.000000 -9.086399 -3.645940 23.326186 4.312548 1.004040 -24.180341 0.557510 1.828102 36.098042 6.274230 5.180003 -21.504948 0.000000 0.000000 0.000000 -14.255328 -1.945469 -12.794815 -36.561184 -12.784878 0.196119 -8.352486 -40.255085 -0.705241 0.000000 0.000000 0.000000 10.698877 -4.197321 4.115091 57.836633 0.431790 -4.786491 -0.358426 27.531720 1.878815 0.000000 0.000000 0.000000 
1.967013 0.935734 0.795025 -23.407738 73.881120 -22.659787 15.446476 -6.898434 9.504791 -3.655954 -1.184318 -7.528136 21.749042 23.579449 21.991671 0.000000 0.000000 0.000000 -9.361922 -5.402061 -16.867977 1.815141 -0.873220 1.009711 -16.203714 -14.625160 38.689355 0.000000 0.000000 0.000000 -7.768779 -3.495716 22.714978 4.072045 0.982894 -25.371162 0.355071 1.161716 36.246361 8.232301 3.443936 -19.762860 0.000000 0.000000 0.000000 -15.882043 -0.624302 -14.194131 -37.873577 -9.610531 -0.737174 -15.760196 -41.492185 2.116695 0.000000 0.000000 0.000000 9.733959 -4.538968 3.206390 58.158243 -0.026998 -4.490932 0.407269 28.114193 2.137749 0.000000 0.000000 0.000000 
1.987557 0.928981 0.822331 -18.546467 73.700048 -18.728260 15.818042 -7.943049 12.002656 -4.055078 -1.151112 -7.502443 22.122542 24.061355 23.101690 0.000000 0.000000 0.000000 -10.268846 -5.636439 -16.256071 1.486290 -1.044242 3.493522 -17.617078 -16.577510 38.667739 0.000000 0.000000 0.000000 -6.564953 -2.996802 20.908932 4.157056 1.080330 -24.114932 0.125039 0.379910 34.830132 8.178275 3.013912 -18.744412 0.000000 0.000000 0.000000 -16.089213 0.332384 -14.325573 -40.039294 -6.704193 -1.987245 -22.015547 -41.588479 4.316399 0.000000 0.000000 0.000000 8.689194 -3.687867 2.967327 57.032827 -1.236983 -4.679225 2.710074 30.289776 2.966853 0.000000 0.000000 0.000000 
2.006860 0.925181 0.855186 -15.304011 74.093013 -16.400049 16.621464 -9.121069 13.791994 -4.557328 -0.932784 -5.710235 21.190959 23.607732 22.206603 0.000000 0.000000 0.000000 -10.506632 -5.751357 -16.115576 3.068252 -2.306039 7.767534 -18.492805 -18.867693 35.476551 0.000000 0.000000 0.000000 -4.489996 -2.792546 19.654928 3.939672 1.124893 -24.256161 -0.190843 -0.753408 33.859213 8.722081 2.414544 -18.317516 0.000000 0.000000 0.000000 -17.010350 0.982313 -15.061083 -42.214842 -3.256235 -3.306993 -26.891584 -40.264807 5.808088 0.000000 0.000000 0.000000 8.057383 -4.695480 1.940062 56.135584 -2.847950 -5.057518 5.554580 33.215249 4.482732 0.000000 0.000000 0.000000 
2.022977 0.923494 0.891982 -11.746967 73.062558 -13.238222 17.572027 -9.917045 14.688239 -5.423381 -0.723780 -3.278333 21.117515 24.068500 24.712800 0.000000 0.000000 0.000000 -9.995085 -5.205314 -15.643567 3.771728 -3.191628 10.446140 -19.562564 -21.780366 32.625654 0.000000 0.000000 0.000000 -3.106593 -2.468515 18.227744 4.248183 1.021401 -24.746701 -0.455058 -2.073243 33.794430 7.967014 3.074221 -19.440836 0.000000 0.000000 0.000000 -17.822874 2.650960 -15.810190 -44.573595 -0.209412 -4.933106 -31.761486 -38.622544 7.182133 0.000000 0.000000 0.000000 8.364133 -6.138010 1.059062 54.506558 -2.749609 -5.266050 8.271897 35.666039 6.213192 0.000000 0.000000 0.000000 
2.034807 0.923984 0.930407 -8.696903 71.960787 -10.869124 19.129445 -10.498077 14.571723 -8.137310 -0.705667 0.127993 20.860330 24.536154 25.064455 0.000000 0.000000 0.000000 -9.262700 -4.645844 -15.529245 5.561778 -4.636319 13.003648 -19.987985 -24.916038 28.450090 0.000000 0.000000 0.000000 -1.465925 -2.538558 17.974596 4.523299 0.894753 -25.269418 -1.376364 -3.594657 32.568419 7.777713 3.113634 -20.954072 0.000000 0.000000 0.000000 -18.113764 3.476589 -15.343742 -45.894883 2.044420 -6.147284 -32.960039 -36.681237 7.293940 0.000000 0.000000 0.000000 7.567712 -6.542599 0.157090 53.452238 -3.808689 -5.609202 11.768085 39.661370 8.944890 0.000000 0.000000 0.000000 
2.043118 0.927034 0.968270 -4.752077 69.042262 -7.228625 20.317217 -10.210222 13.621027 -10.042456 -0.577066 4.701393 18.934281 24.504968 27.496486 0.000000 0.000000 0.000000 -7.913956 -3.521049 -14.720418 6.540799 -5.316925 14.202436 -17.779763 -25.724293 21.701403 0.000000 0.000000 0.000000 -0.764028 -2.455660 17.681731 4.752220 0.758068 -25.625977 -2.394584 -4.904083 32.243208 6.736061 3.552556 -22.755931 0.000000 0.000000 0.000000 -18.951878 4.182924 -14.915742 -47.091104 1.105777 -6.151666 -32.506416 -34.621964 7.095182 0.000000 0.000000 0.000000 7.801665 -7.256368 -0.464517 52.029887 -1.931025 -5.311606 12.304554 42.396966 10.345291 0.000000 0.000000 0.000000 
2.049015 0.931857 1.003451 -2.005267 65.282482 -4.422846 21.975828 -9.499961 11.200306 -13.130546 -0.601316 11.008157 18.733634 25.423841 31.265036 0.000000 0.000000 0.000000 -6.259516 -2.495493 -14.674098 7.477233 -6.039313 15.855162 -16.638447 -26.754409 17.899706 0.000000 0.000000 0.000000 0.500646 -2.053537 15.826737 4.489169 0.790719 -24.745865 -3.181008 -6.233325 31.217679 5.851536 3.527275 -23.563705 0.000000 0.000000 0.000000 -19.469939 2.895073 -13.253909 -47.410211 -0.600107 -5.594959 -28.974939 -34.104527 6.466749 0.000000 0.000000 0.000000 7.866616 -7.598792 -0.979181 50.118042 0.033706 -4.955124 12.335141 44.678078 11.280170 0.000000 0.000000 0.000000 
2.054478 0.936897 1.035991 -0.149134 61.222565 -3.210524 22.018917 -8.496560 10.064460 -15.280090 -0.568492 14.872480 19.619782 26.619993 31.491387 0.000000 0.000000 0.000000 -4.325972 -1.332030 -13.047216 7.733550 -5.853623 15.779977 -14.875795 -25.490507 15.657385 0.000000 0.000000 0.000000 1.075094 -1.891753 15.120964 4.880502 0.625640 -24.478209 -4.480576 -7.470988 31.294274 5.763380 3.136348 -24.815234 0.000000 0.000000 0.000000 -20.271045 3.616288 -12.769516 -46.843353 -4.861324 -3.944617 -28.056291 -34.902511 6.804519 0.000000 0.000000 0.000000 5.792619 -6.772414 -1.444090 50.011451 2.017405 -4.157794 10.092238 48.192930 11.593131 0.000000 0.000000 0.000000 
2.060333 0.941951 1.065745 1.495133 56.659202 -2.786358 21.005280 -7.012741 9.004586 -16.394867 -0.459140 18.181138 19.333418 27.280531 29.005181 0.000000 0.000000 0.000000 -3.038695 -0.530714 -10.376324 7.102515 -4.934910 14.988999 -12.364486 -22.689212 13.238923 0.000000 0.000000 0.000000 1.428317 -1.753781 14.631626 5.121001 0.449689 -24.769736 -4.516105 -7.019811 31.426896 6.056646 2.656171 -25.648033 0.000000 0.000000 0.000000 -19.883155 2.590090 -11.153546 -46.301055 -8.808823 -2.639141 -24.677244 -37.057890 6.524764 0.000000 0.000000 0.000000 5.867097 -6.990347 -1.687471 46.295279 5.251982 -3.476876 6.477406 50.617195 10.629206 0.000000 0.000000 0.000000 
2.066300 0.945719 1.093557 2.174811 52.663309 -3.673307 19.265873 -5.615336 8.434313 -15.753897 -0.368010 19.262741 19.152162 27.737853 25.723125 0.000000 0.000000 0.000000 -1.568572 -0.035744 -7.142852 6.408253 -3.981417 13.611095 -11.051153 -21.232106 12.203466 0.000000 0.000000 0.000000 1.325291 -1.667162 14.660936 5.451020 0.283564 -24.934561 -4.528843 -6.677924 31.734981 6.035328 2.232909 -25.208059 0.000000 0.000000 0.000000 -18.666594 2.348628 -9.645511 -45.223151 -14.833441 -0.775276 -20.477711 -40.273838 5.915323 0.000000 0.000000 0.000000 3.967188 -5.882675 -1.695692 43.483736 6.494852 -3.185102 1.271962 53.966506 8.926129 0.000000 0.000000 0.000000 
2.072022 0.949302 1.119479 3.182461 47.137454 -4.193385 16.038432 -3.644605 7.048665 -13.050946 -0.471202 20.980325 17.807880 27.476152 22.657115 0.000000 0.000000 0.000000 -0.119083 0.193990 -4.449085 4.145657 -2.440966 12.344028 -8.970050 -18.070210 10.988907 0.000000 0.000000 0.000000 0.387930 -1.322199 13.924260 6.464369 -0.097445 -24.757754 -4.544193 -5.676276 32.231766 4.214952 2.806229 -24.626840 0.000000 0.000000 0.000000 -17.876150 2.138014 -8.278679 -43.013263 -19.705179 0.537287 -16.286449 -43.470679 5.211521 0.000000 0.000000 0.000000 3.433822 -4.135758 -1.075790 40.124159 8.576133 -2.826660 -6.853740 55.925773 4.725665 0.000000 0.000000 0.000000 
2.075752 0.951223 1.144670 3.514085 42.114872 -5.043573 13.904064 -2.278370 4.218300 -10.697903 -0.786396 23.278937 15.523014 26.069107 17.718428 0.000000 0.000000 0.000000 1.212175 0.151000 -1.739385 3.390827 -1.751031 11.324668 -7.362200 -15.985363 8.988987 0.000000 0.000000 0.000000 -0.081154 -1.132313 13.506418 7.454829 -0.483299 -25.087488 -4.461752 -4.392000 33.339214 3.276618 3.060202 -24.365665 0.000000 0.000000 0.000000 -15.740443 1.759541 -6.645404 -42.083378 -25.651933 1.951473 -8.822229 -46.666076 2.685075 0.000000 0.000000 0.000000 2.690985 -3.234610 -0.883457 36.837548 10.485524 -2.537527 -12.770345 57.129267 1.572270 0.000000 0.000000 0.000000 
2.076600 0.953301 1.168918 3.810138 35.673449 -6.570454 10.952872 -1.171850 1.933165 -8.024488 -1.184991 25.346227 13.387905 24.303804 13.977604 0.000000 0.000000 0.000000 2.631343 -0.064974 0.823383 1.787072 -0.911237 10.840059 -4.929892 -11.268134 8.323606 0.000000 0.000000 0.000000 -0.887952 -0.931397 13.229759 9.101945 -1.149325 -23.672332 -4.870588 -3.771473 33.290666 1.277850 3.579367 -23.459913 0.000000 0.000000 0.000000 -15.099425 2.291145 -5.666961 -39.673179 -28.342470 2.360101 -1.589095 -49.095726 0.163438 0.000000 0.000000 0.000000 1.267439 -0.962218 -0.257829 36.438466 12.823972 -1.918030 -19.486109 57.932905 -2.618105 0.000000 0.000000 0.000000 
